<?xml version="1.0" encoding="UTF-8" standalone="no"?>
<svg
   xmlns:dc="http://purl.org/dc/elements/1.1/"
   xmlns:cc="http://creativecommons.org/ns#"
   xmlns:rdf="http://www.w3.org/1999/02/22-rdf-syntax-ns#"
   xmlns:svg="http://www.w3.org/2000/svg"
   xmlns="http://www.w3.org/2000/svg"
   xmlns:sodipodi="http://sodipodi.sourceforge.net/DTD/sodipodi-0.dtd"
   xmlns:inkscape="http://www.inkscape.org/namespaces/inkscape"
   width="1920"
   height="1080"
   viewBox="0 0 507.99999 285.75001"
   version="1.1"
   id="svg8"
   inkscape:version="1.0 (4035a4fb49, 2020-05-01)"
   sodipodi:docname="bg.svg">
  <defs
     id="defs2" />
  <sodipodi:namedview
     id="base"
     pagecolor="#ffffff"
     bordercolor="#666666"
     borderopacity="1.0"
     inkscape:pageopacity="0.0"
     inkscape:pageshadow="2"
     inkscape:zoom="0.49497475"
     inkscape:cx="695.96492"
     inkscape:cy="344.71957"
     inkscape:document-units="mm"
     inkscape:current-layer="layer1"
     inkscape:document-rotation="0"
     showgrid="false"
     units="px"
     inkscape:window-width="1920"
     inkscape:window-height="1001"
     inkscape:window-x="-9"
     inkscape:window-y="-9"
     inkscape:window-maximized="1" />
  <metadata
     id="metadata5">
    <rdf:RDF>
      <cc:Work
         rdf:about="">
        <dc:format>image/svg+xml</dc:format>
        <dc:type
           rdf:resource="http://purl.org/dc/dcmitype/StillImage" />
        <dc:title />
      </cc:Work>
    </rdf:RDF>
  </metadata>
  <g
     inkscape:label="Layer 1"
     inkscape:groupmode="layer"
     id="layer1">
    <path
       style="fill:#212121;fill-opacity:1;stroke-width:0.754693"
       d="M -21.242518,363.58098 V 334.14804 H 1.3982065 24.038928 v -23.77275 -23.77277 h 15.47116 c 8.509148,0 15.471166,-0.22384 15.471166,-0.49743 0,-0.27359 -1.292647,-2.22635 -2.872525,-4.33948 C 41.24451,267.23462 33.421826,249.64995 29.927987,231.9053 27.999144,222.109 27.65882,203.27439 29.232196,193.39822 c 1.255373,-7.88001 4.752437,-21.74241 7.520214,-29.81028 11.642591,-33.9372 27.069645,-55.88663 56.846832,-80.880942 19.508488,-16.374981 46.437898,-27.582683 83.037218,-34.559109 6.72031,-1.281009 11.64205,-1.981755 29.88739,-4.255319 2.57682,-0.321091 3.39374,-0.79328 3.96307,-2.290754 0.39444,-1.03746 1.64686,-3.105195 2.78316,-4.594961 l 2.066,-2.70865 -8.67048,0.531337 c -19.47042,1.193162 -34.68208,3.482239 -51.68784,7.778109 -54.94597,13.880027 -95.651038,44.807275 -116.375604,88.420879 -6.073142,12.78058 -6.8743,14.94128 -11.092926,29.918 -3.989787,14.1642 -4.424132,16.52946 -6.513797,35.47044 -1.401194,12.70063 -1.523779,16.84005 -1.072746,36.22517 0.686135,29.48975 0.02106,28.60257 -5.375221,-7.16956 -1.815884,-12.0377 -1.949487,-14.44332 -1.508854,-27.16889 0.265902,-7.67896 0.689029,-15.74471 0.940306,-17.9239 l 0.456848,-3.9621 H 6.4076045 c -4.4154916,0 -8.0281642,-0.26855 -8.0281642,-0.59675 0,-0.32821 3.5917711,-4.99158 7.9817202,-10.36301 l 7.9817045,-9.76628 -2.132858,-0.51312 c -1.173072,-0.28218 -5.1164385,-0.91958 -8.7630487,-1.4164 l -6.6302079,-0.90331 4.03632939,-3.12571 c 2.21997351,-1.71916 7.81284771,-5.99665 12.42859821,-9.50559 4.615753,-3.50894 8.259054,-6.59547 8.096226,-6.85891 -0.162811,-0.26346 -4.045641,-1.63401 -8.628487,-3.04566 -4.5828465,-1.41162 -8.3324427,-2.74916 -8.3324427,-2.97228 0,-0.22315 5.5884877,-3.45119 12.4188707,-7.17348 6.830382,-3.72228 12.179244,-6.9864 11.886381,-7.25367 -0.292877,-0.26722 -4.353117,-1.59736 -9.022764,-2.95582 -4.66966,-1.35848 -8.490271,-2.75485 -8.490271,-3.1031 0,-0.34823 0.373459,-0.63314 0.829907,-0.63314 0.456451,0 7.84299,-2.2772 16.414518,-5.06047 L 44.03823,96.110538 38.000706,94.321801 C 34.680066,93.337998 29.422129,91.783807 26.316388,90.868037 L 20.669578,89.202989 39.843796,83.979954 59.018002,78.75693 54.169541,76.454299 C 51.502876,75.187849 46.77399,72.978313 43.660886,71.544241 L 38.000706,68.936838 56.19408,66.55165 c 10.006357,-1.311843 18.649877,-2.537341 19.207836,-2.723339 0.557965,-0.185981 -3.118742,-2.692648 -8.170443,-5.570359 -5.051719,-2.877711 -8.940692,-5.305885 -8.64217,-5.395948 0.885838,-0.267242 44.016127,-4.741752 45.706287,-4.741752 2.55172,0 0.69892,-1.107135 -9.634221,-5.756894 -11.748306,-5.286574 -13.180357,-4.689408 17.109411,-7.134549 11.93303,-0.963289 21.44214,-1.984842 21.13133,-2.27013 -0.31078,-0.285287 -5.14982,-2.928535 -10.75338,-5.873881 -5.60359,-2.945345 -9.84874,-5.363499 -9.43364,-5.373693 0.41507,-0.0095 24.61912,1.881357 53.78674,4.203419 l 53.03205,4.221938 5.07916,-4.437788 c 6.48967,-5.67025 25.07841,-19.0696374 25.07841,-18.0773824 0,0.1708341 -0.49629,1.7172501 -1.10288,3.4365264 -0.93149,2.640145 -3.42525,16.920768 -3.42525,19.614919 0,0.466774 1.25623,-0.541816 2.79161,-2.241306 2.89422,-3.20355 12.12218,-10.175703 12.70138,-9.596486 0.18133,0.181328 -0.0345,1.495846 -0.47958,2.921128 -1.48831,4.765937 -1.70079,24.375951 -0.38,35.073574 0.66829,5.412772 1.21509,10.19297 1.21509,10.622659 0,0.429676 1.89444,3.281804 4.20985,6.338059 5.91922,7.81309 11.48255,17.522861 17.60737,30.730405 5.63396,12.14897 14.64495,34.55064 19.35785,48.12416 2.21796,6.38795 4.13104,10.14304 8.29906,16.28999 7.85992,11.59168 8.93648,14.75087 8.97946,26.35003 0.0279,7.51333 -0.25762,10.20174 -1.40234,13.20708 -2.37903,6.24594 -5.19921,9.69508 -10.01476,12.2483 -11.32069,6.00224 -23.51058,7.16354 -30.73753,2.92826 -4.76914,-2.79489 -8.31547,-7.87427 -10.81679,-15.49269 l -2.08606,-6.35366 -4.59644,-0.93262 c -6.71896,-1.36328 -15.37566,-5.19972 -22.93868,-10.16585 -9.32832,-6.12532 -22.97668,-19.49329 -30.71957,-30.08852 -0.46524,-0.63662 -4.34981,1.61224 -8.73217,5.05523 -16.17158,12.70511 -21.04404,35.74876 -13.67725,64.68502 3.79875,14.92129 10.07984,28.59706 19.8413,43.20038 3.3239,4.97261 6.45204,9.93786 6.95143,11.03389 l 0.90795,1.99275 h 16.48208 16.48204 v 23.77277 23.77275 h 22.64072 22.64072 v 29.43294 29.43294 H 134.22377 -21.242518 Z"
       id="path861" />
  </g>
</svg>
